<svg width="132" height="70" viewBox="0 0 132 70" fill="none" xmlns="http://www.w3.org/2000/svg">
<path d="M0.9 26L4.932 0.619998H11.556L10.008 10.412H20.448L22.032 0.619998H28.62L24.588 26H18L19.584 15.848H9.144L7.524 26H0.9ZM28.8048 32.48L33.5928 24.74L28.9848 8.288H35.3928L37.6968 18.332L43.3848 8.288H49.9368L35.2848 32.48H28.8048ZM48.2453 26L51.0533 8.288H57.2813L56.8853 10.808C58.1813 8.864 60.1373 7.892 62.7533 7.892C64.6493 7.892 66.1133 8.504 67.1453 9.728C68.1773 10.928 68.4893 12.86 68.0813 15.524L66.4253 26H60.0173L61.6373 15.632C61.7813 14.696 61.7093 13.988 61.4213 13.508C61.1573 13.028 60.6173 12.788 59.8013 12.788C58.8173 12.788 58.0013 13.124 57.3533 13.796C56.7293 14.444 56.3213 15.368 56.1293 16.568L54.6533 26H48.2453ZM67.3774 26L76.3054 16.784L70.6534 8.288H77.8534L80.5894 12.752L84.4774 8.288H92.0014L83.7214 17.072L89.7334 26H82.5334L79.4734 21.212L74.9014 26H67.3774ZM100.195 26.396C98.2988 26.396 96.6428 26.06 95.2268 25.388C93.8108 24.692 92.7068 23.72 91.9148 22.472C91.1228 21.224 90.7268 19.772 90.7268 18.116C90.7268 16.076 91.1708 14.288 92.0588 12.752C92.9708 11.216 94.1948 10.028 95.7308 9.188C97.2668 8.324 98.9948 7.892 100.915 7.892C102.931 7.892 104.551 8.324 105.775 9.188C107.023 10.028 107.887 11.18 108.367 12.644C108.847 14.108 108.967 15.728 108.727 17.504L108.583 18.44H96.6668C96.7148 19.496 97.1108 20.3 97.8548 20.852C98.5988 21.404 99.6188 21.68 100.915 21.68C101.899 21.68 102.859 21.548 103.795 21.284C104.755 20.996 105.583 20.6 106.279 20.096L107.611 24.272C106.723 24.944 105.631 25.472 104.335 25.856C103.063 26.216 101.683 26.396 100.195 26.396ZM100.843 12.068C99.7628 12.068 98.9108 12.392 98.2868 13.04C97.6868 13.688 97.2788 14.48 97.0628 15.416H103.867C103.915 14.432 103.687 13.628 103.183 13.004C102.703 12.38 101.923 12.068 100.843 12.068ZM109.91 32.48L114.698 24.74L110.09 8.288H116.498L118.802 18.332L124.49 8.288H131.042L116.39 32.48H109.91Z" fill="url(#paint0_linear_783_55)"/>
<path d="M10.908 69.396C9.036 69.396 7.2 69.156 5.4 68.676C3.6 68.172 2.004 67.416 0.612 66.408L2.772 61.44C4.236 62.352 5.736 63 7.272 63.384C8.808 63.768 10.236 63.96 11.556 63.96C12.924 63.96 13.968 63.744 14.688 63.312C15.432 62.88 15.804 62.316 15.804 61.62C15.804 61.068 15.576 60.6 15.12 60.216C14.688 59.832 13.992 59.544 13.032 59.352L8.892 58.344C7.068 57.936 5.616 57.156 4.536 56.004C3.48 54.852 2.952 53.424 2.952 51.72C2.952 49.896 3.444 48.36 4.428 47.112C5.436 45.84 6.756 44.88 8.388 44.232C10.044 43.56 11.82 43.224 13.716 43.224C15.3 43.224 16.908 43.452 18.54 43.908C20.196 44.364 21.696 45.084 23.04 46.068L20.772 50.784C19.692 50.016 18.504 49.476 17.208 49.164C15.936 48.828 14.76 48.66 13.68 48.66C12.36 48.66 11.316 48.888 10.548 49.344C9.804 49.776 9.432 50.34 9.432 51.036C9.432 52.116 10.272 52.86 11.952 53.268L16.092 54.24C18.06 54.696 19.584 55.512 20.664 56.688C21.744 57.84 22.284 59.232 22.284 60.864C22.284 62.304 21.972 63.564 21.348 64.644C20.724 65.7 19.884 66.588 18.828 67.308C17.772 68.004 16.56 68.532 15.192 68.892C13.824 69.228 12.396 69.396 10.908 69.396ZM33.32 69.396C31.496 69.396 30.008 69.072 28.856 68.424C27.704 67.776 26.9 66.876 26.444 65.724C25.988 64.572 25.88 63.252 26.12 61.764L27.056 56.004H23.744L24.5 51.288H27.812L28.604 46.14H35.012L34.22 51.288H39.332L38.576 56.004H33.464L32.564 61.512C32.42 62.496 32.564 63.204 32.996 63.636C33.452 64.044 34.112 64.248 34.976 64.248C35.552 64.248 36.188 64.14 36.884 63.924L37.064 68.676C36.56 68.916 35.972 69.096 35.3 69.216C34.628 69.336 33.968 69.396 33.32 69.396ZM45.3001 69.396C44.0281 69.396 42.9481 69.132 42.0601 68.604C41.1721 68.076 40.5361 67.248 40.1521 66.12C39.7681 64.992 39.7201 63.54 40.0081 61.764L41.6641 51.288H48.0721L46.4521 61.656C46.1401 63.552 46.7281 64.5 48.2161 64.5C49.1521 64.5 49.9321 64.164 50.5561 63.492C51.1801 62.82 51.5881 61.884 51.7801 60.684L53.2561 51.288H59.6641L56.8561 69H50.5921L50.9881 66.48C50.3641 67.44 49.5601 68.172 48.5761 68.676C47.5921 69.156 46.5001 69.396 45.3001 69.396ZM67.6412 69.396C65.6492 69.396 64.0532 68.7 62.8532 67.308C61.6772 65.916 61.0892 64.044 61.0892 61.692C61.0892 59.604 61.4612 57.756 62.2052 56.148C62.9492 54.516 63.9932 53.232 65.3372 52.296C66.6812 51.36 68.2532 50.892 70.0532 50.892C71.2052 50.892 72.2372 51.132 73.1492 51.612C74.0612 52.068 74.7572 52.752 75.2372 53.664L76.8212 43.62H83.2292L79.1972 69H72.9332L73.3292 66.516C72.6572 67.428 71.8292 68.136 70.8452 68.64C69.8612 69.144 68.7932 69.396 67.6412 69.396ZM70.3412 64.68C71.5412 64.68 72.4892 64.14 73.1852 63.06C73.8812 61.98 74.2292 60.612 74.2292 58.956C74.2292 57.876 73.9772 57.048 73.4732 56.472C72.9932 55.896 72.3212 55.608 71.4572 55.608C70.2332 55.608 69.2732 56.148 68.5772 57.228C67.8812 58.284 67.5332 59.652 67.5332 61.332C67.5332 62.412 67.7732 63.24 68.2532 63.816C68.7572 64.392 69.4532 64.68 70.3412 64.68ZM86.0414 48.228L86.9774 42.432H93.7094L92.7734 48.228H86.0414ZM82.9094 69L85.7174 51.288H92.1254L89.3174 69H82.9094ZM102.718 69.396C99.8144 69.396 97.5704 68.64 95.9864 67.128C94.4024 65.616 93.6104 63.612 93.6104 61.116C93.6104 59.412 93.8984 57.924 94.4744 56.652C95.0744 55.356 95.8664 54.288 96.8504 53.448C97.8584 52.584 98.9864 51.948 100.234 51.54C101.482 51.108 102.766 50.892 104.086 50.892C106.966 50.892 109.198 51.648 110.782 53.16C112.39 54.672 113.194 56.664 113.194 59.136C113.194 60.864 112.894 62.376 112.294 63.672C111.718 64.944 110.926 66.012 109.918 66.876C108.934 67.716 107.818 68.352 106.57 68.784C105.322 69.192 104.038 69.396 102.718 69.396ZM102.826 64.68C104.05 64.68 105.01 64.14 105.706 63.06C106.402 61.98 106.75 60.612 106.75 58.956C106.75 57.876 106.498 57.048 105.994 56.472C105.514 55.896 104.83 55.608 103.942 55.608C102.742 55.608 101.794 56.148 101.098 57.228C100.402 58.284 100.054 59.652 100.054 61.332C100.054 62.412 100.294 63.24 100.774 63.816C101.278 64.392 101.962 64.68 102.826 64.68Z" fill="white"/>
<defs>
<linearGradient id="paint0_linear_783_55" x1="0" y1="-7" x2="134.729" y2="27.0815" gradientUnits="userSpaceOnUse">
<stop stop-color="#54FF65"/>
<stop offset="1" stop-color="#007CEF"/>
</linearGradient>
</defs>
</svg>
